<svg width="83" height="73" viewBox="0 0 83 73" fill="none" xmlns="http://www.w3.org/2000/svg">
<path d="M41.78 57L34.34 52L27.5 47.4414L19 42C19 42 13.6667 38.08 10.96 36.4C8.34667 34.6267 6.2 32.4333 4.52 29.82C2.84 27.1133 2 23.8467 2 20.02C2 20.02 2.37333 20.02 3.12 20.02C3.96 20.02 4.98667 20.02 6.2 20.02C7.50667 20.02 8.76667 20.02 9.98 20.02C11.1933 20.02 12.22 20.02 13.06 20.02C13.9 20.02 14.32 20.02 14.32 20.02C14.32 22.3533 15.16 24.3133 16.84 25.9C18.52 27.3933 23.28 30.96 23.28 30.96L31.5 36.5L41.5 43.5C41.5 43.5 44.98 42.4667 46.66 45.08C48.4333 47.6 47.66 53 47.66 53L45.455 54.5L43.5 55.8299L41.78 57ZM2 20.02C2 16.1933 2.93333 12.7867 4.8 9.8C6.76 6.72 9.46667 4.34 12.92 2.66C16.3733 0.886666 20.2 0 24.4 0V11.06C21.5067 11.06 19.08 11.9 17.12 13.58C15.2533 15.26 14.32 17.4067 14.32 20.02H2ZM37.56 20.86C37.0933 16.66 36.02 15.54 33.5 13.58C31.0733 11.62 27.76 11.06 24.4 11.06V0C28.7867 0 32.7533 0.886666 36.3 2.66C39.8467 4.43333 42.7867 6.90667 45.12 10.08C47.4533 13.16 45.14 16.7533 45.7 20.86H37.56Z" fill="#DDDDDD"/>
<path d="M43.5 45.9414C43.5 43.6081 47.66 53 47.66 53L54.5 48.4414L63.5 42C63.5 42 68.7933 38.08 71.5 36.4C74.1133 34.6267 75.8 32.4333 77.48 29.82C79.16 27.1133 80 23.8467 80 20.02C80 20.02 79.6267 20.02 78.88 20.02C78.04 20.02 77.0133 20.02 75.8 20.02C74.4933 20.02 73.2333 20.02 72.02 20.02C70.8067 20.02 69.78 20.02 68.94 20.02C68.1 20.02 67.68 20.02 67.68 20.02C67.68 22.3533 66.84 24.3133 65.16 25.9C63.48 27.3933 58.72 30.96 58.72 30.96L50.5 36.5L41.5 43.5C41.5 43.5 37.02 42.4667 35.34 45.08C33.5667 47.6 37.5 45.08 37.5 49C37.5 49 38.16 45.4414 39 45.4414C39.84 45.4414 39.6933 45.4414 41 45.4414C42.2133 45.4414 40.5667 45.9414 41.78 45.9414C42.9933 45.9414 42.16 47.4414 43 47.4414C43.84 47.4414 43.5 45.9414 43.5 45.9414ZM80 20.02C80 16.1933 79.0667 12.7867 77.2 9.8C75.24 6.72 72.5333 4.34 69.08 2.66C65.6267 0.886666 61.8 0 57.6 0V11.06C60.4933 11.06 62.92 11.9 64.88 13.58C66.7467 15.26 67.68 17.4067 67.68 20.02H80ZM45.7 20.86C46.1667 16.66 46.48 15.54 49 13.58C51.4267 11.62 54.24 11.06 57.6 11.06V0C53.2133 0 49.2467 0.886666 45.7 2.66C42.1533 4.43333 39.2133 6.90667 36.88 10.08C34.5467 13.16 38.56 11.3933 38 15.5L45.7 20.86Z" fill="#DDDDDD"/>
<path d="M11.76 48.8008C12.2267 52.9074 13.72 55.9874 16.24 58.0408C18.76 60.0008 21.7 60.9808 25.06 60.9808V72.0408C20.7667 72.0408 16.8 71.1541 13.16 69.3808C9.52 67.6074 6.53333 65.1341 4.2 61.9608C1.96 58.7875 0.56 55.1941 0 51.1808L11.76 48.8008Z" fill="#DDDDDD"/>
<path d="M70.44 48.8008C69.9733 52.9074 68.48 55.9874 65.96 58.0408C63.44 60.0008 60.5 60.9808 57.14 60.9808V72.0408C61.4333 72.0408 65.4 71.1541 69.04 69.3808C72.68 67.6074 75.6667 65.1341 78 61.9608C80.24 58.7875 81.64 55.1941 82.2 51.1808L70.44 48.8008Z" fill="#DDDDDD"/>
</svg>
